<svg width="22" height="16" viewBox="0 0 22 16" fill="none" xmlns="http://www.w3.org/2000/svg">
<path d="M0.999939 8L0.301323 7.72717C0.232811 7.90261 0.232811 8.09739 0.301323 8.27283L0.999939 8ZM20.9999 8L21.6986 8.27283C21.7671 8.0974 21.7671 7.90261 21.6986 7.72717L20.9999 8ZM9.64332 0.328235C9.2319 0.376199 8.93725 0.748609 8.98521 1.16004C9.03318 1.57146 9.40559 1.86611 9.81702 1.81814L9.64332 0.328235ZM5.91017 3.15969C6.26377 2.94396 6.37554 2.48243 6.15982 2.12883C5.94409 1.77522 5.48255 1.66345 5.12895 1.87918L5.91017 3.15969ZM9.40902 6.40894C9.70192 6.11606 9.70195 5.64119 9.40907 5.34828C9.11619 5.05537 8.64131 5.05535 8.3484 5.34823L9.40902 6.40894ZM13.6517 10.6515C13.9446 10.3586 13.9446 9.88375 13.6517 9.59087C13.3588 9.29799 12.8839 9.29801 12.591 9.59092L13.6517 10.6515ZM18.8469 10.3346C18.5967 10.6648 18.6615 11.1352 18.9916 11.3854C19.3217 11.6356 19.7922 11.5708 20.0424 11.2407L18.8469 10.3346ZM16.8712 14.1207C17.2248 13.9049 17.3365 13.4434 17.1208 13.0898C16.9051 12.7362 16.4435 12.6244 16.0899 12.8402L16.8712 14.1207ZM10.9999 10.25C9.7573 10.25 8.74994 9.24264 8.74994 8H7.24994C7.24994 10.0711 8.92887 11.75 10.9999 11.75V10.25ZM10.9999 1.75C15.3248 1.75 18.8022 4.43405 20.3013 8.27283L21.6986 7.72717C19.9974 3.37124 16.003 0.25 10.9999 0.25V1.75ZM10.9999 14.25C6.67507 14.25 3.19771 11.5659 1.69855 7.72717L0.301323 8.27283C2.00244 12.6288 5.99687 15.75 10.9999 15.75V14.25ZM9.81702 1.81814C10.2027 1.77319 10.5972 1.75 10.9999 1.75V0.25C10.5396 0.25 10.087 0.276509 9.64332 0.328235L9.81702 1.81814ZM1.69855 8.27283C2.54347 6.10931 4.01822 4.31394 5.91017 3.15969L5.12895 1.87918C2.94076 3.21417 1.25863 5.27586 0.301323 7.72717L1.69855 8.27283ZM8.74994 8C8.74994 7.37844 9.00099 6.81694 9.40902 6.40894L8.3484 5.34823C7.67054 6.02604 7.24994 6.96461 7.24994 8H8.74994ZM12.591 9.59092C12.183 9.99895 11.6215 10.25 10.9999 10.25V11.75C12.0353 11.75 12.9739 11.3294 13.6517 10.6515L12.591 9.59092ZM20.3013 7.72717C19.9314 8.67434 19.4406 9.55128 18.8469 10.3346L20.0424 11.2407C20.7211 10.345 21.2793 9.34648 21.6986 8.27283L20.3013 7.72717ZM16.0899 12.8402C14.6237 13.7347 12.8983 14.25 10.9999 14.25V15.75C13.1768 15.75 15.1721 15.1573 16.8712 14.1207L16.0899 12.8402Z" fill="#808185"/>
</svg>
